<svg width="18" height="18" viewBox="0 0 18 18" fill="none" xmlns="http://www.w3.org/2000/svg">
<path d="M16.528 2.20919C15.597 1.20846 14.2923 0.639056 12.9255 0.636946C11.5576 0.638529 10.2516 1.20763 9.31912 2.20854L9.00132 2.54436L8.68353 2.20854C6.83326 0.217151 3.71897 0.102789 1.72758 1.95306C1.63933 2.03508 1.55411 2.12027 1.47209 2.20854C-0.490696 4.32565 -0.490696 7.59753 1.47209 9.71463L8.5343 17.1622C8.77863 17.4201 9.18579 17.4312 9.44373 17.1868C9.45217 17.1788 9.46039 17.1706 9.46838 17.1622L16.528 9.71463C18.4907 7.59776 18.4907 4.32606 16.528 2.20919Z" fill="#D1324C"/>
</svg>
