<svg width="18" height="17" viewBox="0 0 18 17" fill="none" xmlns="http://www.w3.org/2000/svg">
<path d="M17.9742 6.45532C17.9122 6.26628 17.7471 6.12855 17.5485 6.09997L11.9684 5.29716L9.4729 0.291019C9.38406 0.112808 9.20076 0 9.00002 0C8.79931 0 8.61597 0.112843 8.52713 0.291019L6.03146 5.29719L0.451507 6.09997C0.252875 6.12855 0.0878515 6.26632 0.0258359 6.45532C-0.0362148 6.64432 0.0155352 6.8518 0.159254 6.9905L4.19687 10.8873L3.24386 16.3896C3.20993 16.5855 3.29128 16.7835 3.45367 16.9002C3.61602 17.017 3.83125 17.0324 4.00903 16.94L8.99998 14.3422L13.9908 16.94C14.068 16.9802 14.1522 17 14.2361 17C14.3455 17 14.4543 16.9664 14.5462 16.9003C14.7085 16.7835 14.7899 16.5855 14.756 16.3896L13.8027 10.8873L17.8407 6.99054C17.9845 6.8518 18.0362 6.64432 17.9742 6.45532ZM12.868 10.3311C12.7437 10.4511 12.6869 10.6239 12.7163 10.7933L13.5358 15.5234L9.24544 13.2902C9.09181 13.2102 8.90826 13.2102 8.75463 13.2902L4.46399 15.5235L5.28327 10.7932C5.31259 10.6239 5.25588 10.4511 5.13164 10.3311L1.66063 6.98121L6.45752 6.29103C6.6293 6.26632 6.77773 6.15953 6.85458 6.00544L8.99998 1.70173L11.1453 6.0054C11.2222 6.15949 11.3706 6.26632 11.5424 6.29103L16.3393 6.98118L12.868 10.3311Z" fill="#B0B0B0"/>
</svg>
